<svg width="27" height="49" viewBox="0 0 27 49" fill="none" xmlns="http://www.w3.org/2000/svg">
<path d="M22.0651 1.40039H4.93512C2.89719 1.40039 1.24512 3.05252 1.24512 5.09045V43.9104C1.24512 45.9483 2.89719 47.6005 4.93512 47.6005H22.0651C24.1031 47.6005 25.7551 45.9483 25.7551 43.9104V5.09045C25.7551 3.05252 24.1031 1.40039 22.0651 1.40039Z" stroke="black" stroke-width="1.2" stroke-miterlimit="10"/>
<path d="M15.2056 42.8806C15.2056 43.2168 15.1059 43.5456 14.9191 43.8252C14.7323 44.1048 14.4668 44.3226 14.1562 44.4513C13.8456 44.58 13.5037 44.6136 13.174 44.548C12.8442 44.4824 12.5413 44.3205 12.3035 44.0828C12.0658 43.845 11.9039 43.542 11.8383 43.2123C11.7727 42.8825 11.8064 42.5407 11.9351 42.2301C12.0637 41.9195 12.2816 41.654 12.5612 41.4672C12.8407 41.2804 13.1694 41.1807 13.5056 41.1807C13.9565 41.1807 14.3889 41.3598 14.7077 41.6786C15.0265 41.9974 15.2056 42.4297 15.2056 42.8806Z" fill="black"/>
<path d="M18.0955 5.02H8.90552C8.77026 5.02 8.6405 4.96635 8.54486 4.8707C8.44922 4.77506 8.39551 4.64525 8.39551 4.50999C8.39551 4.37473 8.44922 4.24503 8.54486 4.14939C8.6405 4.05375 8.77026 4.0001 8.90552 4.0001H18.0955C18.1633 3.99877 18.2307 4.01095 18.2938 4.03599C18.3568 4.06102 18.4142 4.09836 18.4626 4.14585C18.511 4.19334 18.5495 4.24994 18.5757 4.31248C18.602 4.37501 18.6155 4.44216 18.6155 4.50999C18.6155 4.57781 18.602 4.64496 18.5757 4.7075C18.5495 4.77003 18.511 4.82675 18.4626 4.87424C18.4142 4.92173 18.3568 4.95907 18.2938 4.98411C18.2307 5.00914 18.1633 5.02133 18.0955 5.02Z" fill="black"/>
</svg>
