<svg width="20" height="20" viewBox="0 0 20 20" fill="none" xmlns="http://www.w3.org/2000/svg">
<path d="M8.5794 16.4295C8.65737 16.5063 8.74971 16.567 8.85115 16.6081C8.95258 16.6493 9.06113 16.67 9.17058 16.6692C9.28004 16.6684 9.38827 16.646 9.48908 16.6034C9.58989 16.5608 9.68132 16.4987 9.75815 16.4207C9.83497 16.3427 9.89568 16.2504 9.93682 16.149C9.97796 16.0475 9.99871 15.939 9.9979 15.8295C9.99709 15.7201 9.97472 15.6118 9.93208 15.511C9.88945 15.4102 9.82737 15.3188 9.7494 15.242L5.2744 10.8336H16.6661C16.8871 10.8336 17.099 10.7458 17.2553 10.5896C17.4116 10.4333 17.4994 10.2213 17.4994 10.0003C17.4994 9.77928 17.4116 9.56732 17.2553 9.41104C17.099 9.25476 16.8871 9.16696 16.6661 9.16696H5.28023L9.75023 4.76113C9.90352 4.60511 9.98933 4.39508 9.98914 4.17636C9.98895 3.95764 9.90278 3.74776 9.74922 3.59201C9.59566 3.43626 9.38702 3.34713 9.16832 3.34384C8.94962 3.34056 8.7384 3.42339 8.58023 3.57446L2.81023 9.25946C2.71197 9.35637 2.63394 9.47184 2.58068 9.59916C2.52743 9.72648 2.5 9.86312 2.5 10.0011C2.5 10.1391 2.52743 10.2758 2.58068 10.4031C2.63394 10.5304 2.71197 10.6459 2.81023 10.7428L8.58023 16.4286L8.5794 16.4295Z" fill="#181920"/>
</svg>
