<svg width="32" height="40" viewBox="0 0 32 40" fill="none" xmlns="http://www.w3.org/2000/svg">
<path d="M19.0637 36.4409H12.7737V35.1994H15.3807V28.744C6.09459 28.3715 4.4062 19.6397 4.38965 19.5983V0H27.6381V19.5983C27.6381 19.6811 25.9332 28.3715 16.6388 28.744V35.1994H19.0803L19.0637 36.4409ZM5.62285 19.4245C6.11483 21.7832 7.42813 23.8908 9.3288 25.3716C11.2295 26.8524 13.5941 27.6104 16.0015 27.5106C18.4038 27.5844 20.7564 26.8169 22.6529 25.3405C24.5494 23.8641 25.8706 21.7715 26.3884 19.4245V1.21641H5.62285V19.4245Z" fill="#026D9C"/>
<path d="M5.00282 8.56583C4.36848 8.60329 3.73364 8.5009 3.14305 8.26638C2.55246 8.03186 2.02049 7.67081 1.58465 7.20839C0.667931 5.98153 0.253552 4.45133 0.42596 2.92954V2.56543H4.96142V3.39307H1.22049C1.15206 4.56496 1.501 5.72295 2.20538 6.66201C2.5657 7.03356 3.00255 7.32245 3.48562 7.50825C3.96868 7.69404 4.48639 7.77253 5.00282 7.73819V8.56583Z" fill="#026D9C"/>
<path d="M27.0098 8.56583V7.73819C27.5249 7.77243 28.0414 7.69367 28.5231 7.50784C29.0048 7.32202 29.4402 7.03336 29.7989 6.66201C30.5079 5.72528 30.8574 4.56555 30.7838 3.39307H27.0098V2.56543H31.537L31.5866 2.92954C31.5866 3.03714 31.8846 5.56138 30.4196 7.20839C29.9854 7.67062 29.4549 8.03183 28.8657 8.26638C28.2764 8.50093 27.6429 8.6032 27.0098 8.56583Z" fill="#026D9C"/>
<path d="M27.0099 38.3447H5.00293V40H27.0099V38.3447Z" fill="#026D9C"/>
</svg>
