<svg width="24" height="16" viewBox="0 0 24 16" fill="none" xmlns="http://www.w3.org/2000/svg">
<path d="M22.2419 10.6813C21.9141 9.17174 21.2562 7.75381 20.3154 6.52857C19.3746 5.30334 18.1743 4.30133 16.8005 3.59493H20.7293C20.842 3.85204 21.0398 4.06255 21.2894 4.19106C21.539 4.31957 21.8253 4.35849 22.1 4.30088C22.3748 4.24328 22.6214 4.09247 22.7984 3.87453C22.9754 3.65659 23.072 3.38458 23.072 3.10383C23.072 2.82308 22.9754 2.55107 22.7984 2.33313C22.6214 2.1152 22.3748 1.96486 22.1 1.90726C21.8253 1.84966 21.539 1.88809 21.2894 2.0166C21.0398 2.14511 20.842 2.35562 20.7293 2.61273H14.2419V0.898682H9.82198V2.61273H3.3395C3.22682 2.35702 3.02963 2.14802 2.78102 2.02044C2.5324 1.89286 2.24743 1.85448 1.97399 1.91205C1.70054 1.96963 1.45525 2.11949 1.27918 2.33649C1.10312 2.55348 1.00702 2.82439 1.00702 3.10383C1.00702 3.38327 1.10312 3.65418 1.27918 3.87117C1.45525 4.08817 1.70054 4.23804 1.97399 4.29561C2.24743 4.35318 2.5324 4.3148 2.78102 4.18722C3.02963 4.05964 3.22682 3.85064 3.3395 3.59493H7.26829C5.89225 4.29965 4.68958 5.30078 3.74697 6.52618C2.80436 7.75157 2.14523 9.17057 1.81704 10.6813H0V15.1012H4.41989V10.6813H3.14796C3.54951 9.077 4.3793 7.61215 5.54872 6.44273C6.71815 5.2733 8.1833 4.44346 9.78763 4.04191V5.31378H14.2075V4.04191C15.8118 4.44346 17.2769 5.2733 18.4464 6.44273C19.6158 7.61215 20.4456 9.077 20.8471 10.6813H19.5801V15.1012H24V10.6813H22.2419ZM3.77652 14.4432H0.677719V11.3398H3.77652V14.4432ZM13.5985 4.65098H10.4948V1.55188H13.5985V4.65098ZM23.391 14.4432H20.2922V11.3398H23.391V14.4432Z" fill="#026D9C"/>
</svg>
