<svg width="34" height="40" viewBox="0 0 34 40" fill="none" xmlns="http://www.w3.org/2000/svg">
<path d="M32.9261 0.0416344L22.2792 5.97472L0.760625 0.00770822C0.72395 -0.00150062 0.685663 -0.00254697 0.648619 0.00504734C0.611576 0.0126417 0.576726 0.0283829 0.546633 0.0512801C0.516539 0.0741772 0.491987 0.103749 0.474789 0.137426C0.457591 0.171103 0.448171 0.208053 0.447266 0.245857V32.4388C0.447665 32.4904 0.464335 32.5406 0.494912 32.5821C0.525489 32.6237 0.568414 32.6545 0.617562 32.6703L21.8365 39.8091L22.4086 40L22.8582 39.7342L33.5528 33.406V0.443427C33.5525 0.370104 33.5331 0.298103 33.4965 0.234548C33.46 0.170993 33.4075 0.117998 33.3443 0.0808823C33.2811 0.0437661 33.2092 0.0239501 33.1359 0.0230083C33.0626 0.0220664 32.9903 0.040081 32.9261 0.0755605M21.8365 38.3922C21.8377 38.4312 21.8294 38.4699 21.8122 38.5049C21.795 38.5399 21.7695 38.5702 21.7379 38.5931C21.7063 38.6159 21.6695 38.6306 21.6309 38.636C21.5923 38.6413 21.5529 38.6374 21.5163 38.624L1.63934 31.9346C1.58962 31.9197 1.54609 31.8892 1.51536 31.8474C1.48462 31.8056 1.46836 31.7549 1.46904 31.7031V1.58794C1.46995 1.55013 1.47937 1.51285 1.49657 1.47917C1.51376 1.4455 1.53832 1.41626 1.56841 1.39336C1.5985 1.37046 1.63335 1.35472 1.6704 1.34713C1.70744 1.33953 1.74573 1.34025 1.7824 1.34945L21.6593 6.86013C21.7103 6.87599 21.7549 6.90775 21.7867 6.9506C21.8186 6.99344 21.836 7.04524 21.8365 7.09861V38.3922ZM32.531 32.8269L22.8582 38.5488V6.79228L32.531 1.42429V32.8269Z" fill="#026D9C"/>
<path d="M18.3486 14.047C18.29 14.0569 18.2301 14.0569 18.1715 14.047L4.43195 9.1084C4.30368 9.06233 4.199 8.96725 4.14088 8.84397C4.08275 8.7207 4.07597 8.5791 4.12204 8.45083C4.16811 8.32256 4.26323 8.21792 4.38651 8.1598C4.50978 8.10167 4.65109 8.0951 4.77936 8.14117L18.5189 13.0798C18.5846 13.1032 18.6449 13.1396 18.6962 13.1869C18.7475 13.2342 18.7887 13.2912 18.8173 13.3548C18.8459 13.4184 18.8614 13.4873 18.8628 13.557C18.8642 13.6268 18.8514 13.6962 18.8254 13.7609C18.7893 13.8585 18.7244 13.9428 18.6392 14.0024C18.5539 14.0621 18.4526 14.0941 18.3486 14.0945" fill="#026D9C"/>
<path d="M18.3488 20.0549C18.2902 20.0652 18.2303 20.0652 18.1717 20.0549L4.43218 15.0072C4.36587 14.9846 4.3049 14.9489 4.25307 14.9017C4.20125 14.8546 4.15967 14.7973 4.13092 14.7334C4.10218 14.6695 4.08689 14.6003 4.08598 14.5302C4.08508 14.4602 4.0986 14.3906 4.12569 14.326C4.1481 14.2597 4.18406 14.199 4.23133 14.1474C4.2786 14.0957 4.33613 14.0545 4.40021 14.0263C4.4643 13.9981 4.53355 13.9834 4.60356 13.9834C4.67358 13.9834 4.74282 13.998 4.80687 14.0263L18.5463 19.0673C18.6127 19.0899 18.6736 19.1256 18.7255 19.1728C18.7773 19.2199 18.8189 19.2772 18.8476 19.3411C18.8764 19.405 18.8917 19.4742 18.8926 19.5443C18.8935 19.6143 18.88 19.6839 18.8529 19.7485C18.8177 19.8466 18.7529 19.9312 18.6675 19.991C18.5821 20.0508 18.4803 20.0826 18.376 20.0821" fill="#026D9C"/>
<path d="M18.3486 25.9607C18.29 25.9706 18.2301 25.9706 18.1715 25.9607L4.43198 21.0221C4.30824 20.9734 4.20841 20.8783 4.15367 20.757C4.09893 20.6358 4.09363 20.4983 4.13887 20.3732C4.1841 20.2482 4.27632 20.1457 4.39593 20.0875C4.51554 20.0294 4.6531 20.0202 4.77939 20.0619L18.5189 25.0005C18.6293 25.0428 18.7216 25.1222 18.78 25.225C18.8385 25.3278 18.8594 25.4477 18.8393 25.5643C18.8192 25.6808 18.7594 25.7866 18.6699 25.8639C18.5804 25.9412 18.4668 25.9851 18.3486 25.988" fill="#026D9C"/>
<path d="M18.3486 31.9755C18.288 31.9748 18.228 31.9634 18.1715 31.9416L4.43198 26.9009C4.30824 26.8521 4.20841 26.757 4.15367 26.6358C4.09893 26.5146 4.09363 26.3767 4.13887 26.2516C4.1841 26.1266 4.27632 26.0241 4.39593 25.9659C4.51554 25.9078 4.6531 25.8986 4.77939 25.9403L18.5189 30.981C18.5846 31.0044 18.6449 31.0408 18.6962 31.0881C18.7475 31.1354 18.7887 31.1928 18.8173 31.2564C18.846 31.32 18.8614 31.3885 18.8628 31.4583C18.8642 31.5281 18.8515 31.5975 18.8254 31.6622C18.7893 31.7598 18.7244 31.844 18.6392 31.9037C18.554 31.9633 18.4526 31.9956 18.3486 31.9961" fill="#026D9C"/>
<path d="M24.3777 14.0469C24.2698 14.046 24.1651 14.0109 24.0783 13.9468C23.9916 13.8827 23.9274 13.7928 23.8949 13.69C23.8624 13.5872 23.8632 13.4767 23.8973 13.3744C23.9314 13.272 23.9971 13.1833 24.0848 13.1206L30.9511 8.18199C31.0613 8.1025 31.1986 8.06981 31.3327 8.09152C31.4669 8.11324 31.5869 8.18754 31.6664 8.29774C31.7459 8.40794 31.7783 8.54511 31.7566 8.67924C31.7349 8.81338 31.6608 8.93336 31.5506 9.01285L24.6774 13.9514C24.5896 14.0131 24.485 14.0465 24.3777 14.0469Z" fill="#026D9C"/>
<path d="M24.3776 20.0545C24.2982 20.055 24.2198 20.0368 24.1488 20.0013C24.0778 19.9658 24.0161 19.9141 23.9689 19.8503C23.929 19.7962 23.9002 19.7346 23.8841 19.6693C23.8679 19.6041 23.8648 19.5365 23.875 19.4701C23.8851 19.4037 23.9082 19.3397 23.9431 19.2822C23.9779 19.2247 24.0237 19.1746 24.0779 19.1348L30.9511 14.0941C31.0595 14.0146 31.195 13.9816 31.3278 14.002C31.3936 14.0121 31.4568 14.035 31.5137 14.0695C31.5706 14.104 31.6201 14.1496 31.6595 14.2032C31.6988 14.2569 31.7272 14.3179 31.743 14.3825C31.7589 14.4472 31.7618 14.5143 31.7517 14.5801C31.7416 14.6459 31.7186 14.7088 31.6841 14.7657C31.6496 14.8226 31.6042 14.8723 31.5505 14.9117L24.6842 19.959C24.5949 20.0229 24.4874 20.0565 24.3776 20.0545Z" fill="#026D9C"/>
<path d="M24.3773 25.9602C24.297 25.9617 24.2176 25.9432 24.1462 25.9064C24.0749 25.8695 24.0138 25.8154 23.9686 25.749C23.8959 25.6426 23.8673 25.5122 23.8889 25.3852C23.9105 25.2581 23.9806 25.1442 24.0844 25.0679L30.9508 20.1226C31.061 20.0431 31.1982 20.0108 31.3323 20.0325C31.4665 20.0542 31.5865 20.1282 31.666 20.2384C31.7455 20.3486 31.7779 20.4857 31.7562 20.6199C31.7345 20.754 31.6604 20.8743 31.5502 20.9538L24.677 25.8924C24.5908 25.9572 24.4851 25.9905 24.3773 25.9875" fill="#026D9C"/>
<path d="M24.3767 31.9755C24.2682 31.976 24.1624 31.942 24.0746 31.8784C23.9868 31.8148 23.9215 31.7251 23.8881 31.622C23.8547 31.5188 23.855 31.4076 23.889 31.3046C23.9229 31.2017 23.9887 31.1123 24.0769 31.0492L30.9501 26.0085C31.0557 25.935 31.1856 25.9054 31.3126 25.9257C31.4397 25.946 31.5539 26.0145 31.6313 26.1173C31.6721 26.171 31.7016 26.2325 31.7183 26.2979C31.7349 26.3633 31.7382 26.4314 31.7281 26.4981C31.7179 26.5648 31.6944 26.6289 31.6591 26.6864C31.6237 26.7438 31.5772 26.7936 31.5223 26.8327L24.6491 31.8598C24.5605 31.9257 24.4531 31.9614 24.3426 31.9619" fill="#026D9C"/>
</svg>
