<svg width="70" height="20" viewBox="0 0 70 20" fill="none" xmlns="http://www.w3.org/2000/svg">
<mask id="path-1-inside-1_44_419" fill="white">
<path d="M68.8524 12.2453L68.5498 12.5171C68.4187 12.6079 68.2977 12.7189 68.1666 12.8298C67.6725 13.2231 67.1582 13.566 67.0876 13.6265L66.9868 13.687C66.5994 13.8874 66.1794 14.0171 65.7465 14.0701C63.9212 14.2819 60.7044 13.3545 55.7732 7.5863C46.5159 -3.19371 37.0771 0.385985 35.0804 1.3339C33.0636 0.406153 23.6348 -3.22396 14.3674 7.5863C9.41609 13.3545 6.2093 14.2819 4.39414 14.0701C3.92021 14.0212 3.46262 13.8698 3.05299 13.6265L2.99242 13.5762C2.27672 13.1025 1.60207 12.5695 0.975586 11.9829C1.42897 13.8496 2.39264 15.5534 3.75883 16.9038C6.43744 18.8486 9.64621 19.9291 12.9556 20C16.3641 20 20.2465 18.7494 24.3609 15.0889C25.8836 13.6315 27.7899 12.6382 29.8567 12.2251C32.1862 11.8419 33.7392 12.2247 34.2132 13.2936C34.6682 14.0663 34.9438 14.9315 35.0198 15.825C35.0935 14.9311 35.3694 14.0653 35.8266 13.2936C36.3006 12.2247 37.8434 11.8419 40.193 12.2251C42.2563 12.64 44.159 13.6332 45.6789 15.0889C49.7832 18.7494 53.6857 20 57.0841 20C60.3994 19.9274 63.6141 18.8473 66.301 16.9038C67.6366 15.5516 68.578 13.8605 69.0238 12.0129L68.7818 12.2552"/>
</mask>
<path d="M68.5498 12.5171L69.4036 13.7504L69.4816 13.6964L69.5522 13.633L68.5498 12.5171ZM68.1666 12.8298L69.1007 14.0034L69.1183 13.9894L69.1355 13.9749L68.1666 12.8298ZM67.0876 13.6265L67.86 14.9123L67.9681 14.8474L68.0638 14.7654L67.0876 13.6265ZM66.9868 13.687L67.676 15.0193L67.7184 14.9974L67.7592 14.9729L66.9868 13.687ZM65.7465 14.0701L65.9193 15.5602L65.9288 15.559L65.7465 14.0701ZM55.7732 7.5863L56.9133 6.61159L56.9112 6.60906L55.7732 7.5863ZM35.0804 1.3339L34.4535 2.69663L35.0904 2.9896L35.7237 2.68895L35.0804 1.3339ZM14.3674 7.5863L15.5056 8.5633L15.5062 8.56257L14.3674 7.5863ZM4.39414 14.0701L4.56796 12.5802L4.55813 12.5791L4.54829 12.5781L4.39414 14.0701ZM3.05299 13.6265L2.09548 14.7811L2.1859 14.8561L2.28688 14.9161L3.05299 13.6265ZM2.99242 13.5762L3.94993 12.4216L3.88772 12.37L3.82031 12.3254L2.99242 13.5762ZM0.975586 11.9829L2.00084 10.8879L-1.66843 7.45212L-0.482039 12.3369L0.975586 11.9829ZM3.75883 16.9038L2.70432 17.9706L2.78535 18.0507L2.87755 18.1176L3.75883 16.9038ZM12.9556 20L12.9235 21.4997L12.9396 21.5H12.9556V20ZM24.3609 15.0889L25.358 16.2095L25.3784 16.1914L25.3981 16.1725L24.3609 15.0889ZM29.8567 12.2251L29.6133 10.745L29.5879 10.7492L29.5627 10.7542L29.8567 12.2251ZM34.2132 13.2936L32.8419 13.9016L32.8769 13.9804L32.9206 14.0547L34.2132 13.2936ZM35.0198 15.825L33.5252 15.9523L36.5148 15.9482L35.0198 15.825ZM35.8266 13.2936L37.1171 14.0582L37.1621 13.9823L37.1979 13.9016L35.8266 13.2936ZM40.193 12.2251L40.4888 10.7546L40.4617 10.7491L40.4345 10.7447L40.193 12.2251ZM45.6789 15.0889L44.6414 16.1722L44.6606 16.1906L44.6805 16.2083L45.6789 15.0889ZM57.0841 20V21.5H57.1005L57.1169 21.4996L57.0841 20ZM66.301 16.9038L67.1802 18.1192L67.2809 18.0464L67.3683 17.9579L66.301 16.9038ZM69.0238 12.0129L70.482 12.3647L71.7334 7.17817L67.9626 10.9528L69.0238 12.0129ZM67.85 11.1294L67.5474 11.4012L69.5522 13.633L69.8548 13.3612L67.85 11.1294ZM67.696 11.2838C67.4855 11.4295 67.2653 11.6275 67.1977 11.6847L69.1355 13.9749C69.33 13.8102 69.3519 13.7862 69.4036 13.7504L67.696 11.2838ZM67.2325 11.6561C67.0148 11.8294 66.7866 11.9963 66.5956 12.1329C66.4978 12.2029 66.4205 12.2572 66.3476 12.3091C66.314 12.3329 66.279 12.3579 66.2483 12.3804C66.2308 12.3932 66.1703 12.4371 66.1114 12.4876L68.0638 14.7654C68.0226 14.8007 67.9936 14.8207 68.0196 14.8016C68.0325 14.7922 68.0532 14.7774 68.0854 14.7545C68.1442 14.7127 68.2396 14.6454 68.341 14.5729C68.5483 14.4246 68.8242 14.2235 69.1007 14.0034L67.2325 11.6561ZM66.3152 12.3406L66.2144 12.4012L67.7592 14.9729L67.86 14.9123L66.3152 12.3406ZM66.2976 12.3548C66.0687 12.4732 65.8204 12.5499 65.5641 12.5812L65.9288 15.559C66.5384 15.4843 67.1301 15.3017 67.676 15.0193L66.2976 12.3548ZM65.5736 12.5801C64.5139 12.7031 61.7487 12.2676 56.9133 6.61159L54.633 8.56101C59.6601 14.4413 63.3286 15.8607 65.9193 15.5601L65.5736 12.5801ZM56.9112 6.60906C52.0404 0.937108 47.0119 -1.06165 42.8366 -1.43201C38.7134 -1.79774 35.5792 -0.563366 34.4371 -0.0211498L35.7237 2.68895C36.5783 2.28325 39.1618 1.25382 42.5715 1.55626C45.9291 1.85408 50.2487 3.45548 54.6352 8.56354L56.9112 6.60906ZM35.7073 -0.0288366C34.5739 -0.550204 31.4398 -1.79504 27.3129 -1.43601C23.1344 -1.07249 18.1047 0.922115 13.2286 6.61002L15.5062 8.56257C19.8975 3.44022 24.2159 1.84476 27.5729 1.5527C30.9814 1.25617 33.5701 2.29026 34.4535 2.69663L35.7073 -0.0288366ZM13.2292 6.60929C8.3705 12.2696 5.61581 12.7025 4.56796 12.5802L4.22032 15.56C6.80279 15.8613 10.4617 14.4393 15.5056 8.5633L13.2292 6.60929ZM4.54829 12.5781C4.29051 12.5514 4.04174 12.4691 3.8191 12.3369L2.28688 14.9161C2.8835 15.2705 3.5499 15.4909 4.24 15.5622L4.54829 12.5781ZM4.0105 12.4718L3.94993 12.4216L2.03492 14.7309L2.09548 14.7811L4.0105 12.4718ZM3.82031 12.3254C3.17471 11.8981 2.56608 11.4172 2.00084 10.8879L-0.0496724 13.0778C0.63807 13.7218 1.37873 14.307 2.16454 14.8271L3.82031 12.3254ZM-0.482039 12.3369C0.0370229 14.474 1.14028 16.4246 2.70432 17.9706L4.81334 15.8371C3.645 14.6822 2.82092 13.2252 2.43321 11.6288L-0.482039 12.3369ZM2.87755 18.1176C5.80339 20.242 9.30842 21.4222 12.9235 21.4997L12.9877 18.5003C9.984 18.436 7.07148 17.4553 4.64012 15.69L2.87755 18.1176ZM12.9556 21.5C16.7725 21.5 21.0011 20.0859 25.358 16.2095L23.3638 13.9682C19.492 17.413 15.9556 18.5 12.9556 18.5V21.5ZM25.3981 16.1725C26.7148 14.9122 28.3633 14.0533 30.1507 13.696L29.5627 10.7542C27.2165 11.2232 25.0523 12.3507 23.3237 14.0052L25.3981 16.1725ZM30.1002 13.7052C31.1573 13.5313 31.9052 13.5566 32.373 13.6715C32.5988 13.727 32.7215 13.7941 32.7798 13.8364C32.8297 13.8725 32.8382 13.8933 32.8419 13.9016L35.5844 12.6856C35.1006 11.5944 34.1162 11.0105 33.0885 10.7581C32.079 10.5102 30.8856 10.5357 29.6133 10.745L30.1002 13.7052ZM32.9206 14.0547C33.2616 14.6338 33.4682 15.2824 33.5252 15.9523L36.5144 15.6978C36.4193 14.5807 36.0747 13.4989 35.5057 12.5325L32.9206 14.0547ZM36.5148 15.9482C36.5698 15.2808 36.7758 14.6343 37.1171 14.0582L34.5361 12.529C33.963 13.4963 33.6172 14.5814 33.5249 15.7018L36.5148 15.9482ZM37.1979 13.9016C37.2024 13.8915 37.2114 13.8707 37.2602 13.8353C37.3175 13.7936 37.4389 13.7269 37.6642 13.6715C38.1317 13.5567 38.8821 13.5311 39.9516 13.7056L40.4345 10.7447C39.1543 10.5359 37.9586 10.5101 36.9487 10.7581C35.9181 11.0112 34.9383 11.5965 34.4554 12.6856L37.1979 13.9016ZM39.8973 13.6957C41.6816 14.0545 43.3271 14.9134 44.6414 16.1722L46.7164 14.0056C44.991 12.353 42.8309 11.2256 40.4888 10.7546L39.8973 13.6957ZM44.6805 16.2083C49.0293 20.087 53.2788 21.5 57.0841 21.5V18.5C54.0926 18.5 50.5371 17.4119 46.6773 13.9694L44.6805 16.2083ZM57.1169 21.4996C60.7367 21.4204 64.2466 20.2411 67.1802 18.1192L65.4219 15.6885C62.9817 17.4536 60.0621 18.4345 57.0512 18.5004L57.1169 21.4996ZM67.3683 17.9579C68.8956 16.4115 69.9722 14.4776 70.482 12.3647L67.5657 11.6611C67.1839 13.2434 66.3776 14.6917 65.2338 15.8498L67.3683 17.9579ZM67.9626 10.9528L67.7206 11.195L69.843 13.3153L70.085 13.073L67.9626 10.9528Z" fill="#026D9C" mask="url(#path-1-inside-1_44_419)"/>
</svg>
