<svg width="21" height="38" viewBox="0 0 21 38" fill="none" xmlns="http://www.w3.org/2000/svg">
<path d="M12.69 37.4735H3.89001V18.4735H0V11.3534H3.89001V10.9832C3.82899 9.63127 4.04303 8.28132 4.51917 7.01449C4.9953 5.74767 5.72364 4.59022 6.66003 3.61313C7.69731 2.66505 8.91384 1.93429 10.238 1.46371C11.5621 0.993134 12.9671 0.793008 14.37 0.873867C15.4774 0.867203 16.5818 0.991514 17.66 1.24398C18.6177 1.45435 19.5313 1.82934 20.36 2.35336L20.85 2.68344L18.39 9.4432L17.59 8.88363C16.8532 8.36683 15.9697 8.10065 15.07 8.12387C13.27 8.12387 12.5 8.99402 12.5 11.034V11.3534H18.96V18.4735H12.69V37.4735ZM5.39001 35.9735H11.19V16.9735H17.46V12.8534H11V11.034C11 8.19402 12.45 6.62387 15.07 6.62387C15.9501 6.61797 16.8206 6.80554 17.62 7.17367L19.02 3.31332C18.4777 3.03933 17.9032 2.83503 17.31 2.70395C16.3462 2.47951 15.3595 2.36868 14.37 2.37387C13.1619 2.29549 11.9504 2.45959 10.8067 2.85629C9.66296 3.25299 8.61009 3.87387 7.71002 4.68344C6.91141 5.51794 6.29325 6.50774 5.8941 7.59164C5.49495 8.67554 5.32336 9.83011 5.39001 10.9832V12.8534H1.5V16.9735H5.39001V35.9735Z" fill="#808080"/>
</svg>
