<svg width="43" height="47" viewBox="0 0 43 47" fill="none" xmlns="http://www.w3.org/2000/svg">
<path d="M17.1706 40.6803C17.1726 41.85 16.8273 42.994 16.1786 43.9674C15.53 44.9408 14.6071 45.6999 13.5268 46.1484C12.4465 46.597 11.2574 46.7149 10.11 46.4872C8.96269 46.2595 7.90873 45.6964 7.0816 44.8693C6.25447 44.0421 5.6914 42.9882 5.46368 41.8408C5.23596 40.6935 5.35375 39.5043 5.80231 38.424C6.25086 37.3436 7.00991 36.4207 7.98334 35.7721C8.95676 35.1235 10.1008 34.7783 11.2706 34.7803C12.0454 34.7803 12.8126 34.9329 13.5284 35.2294C14.2442 35.5259 14.8946 35.9604 15.4424 36.5083C15.9903 37.0562 16.425 37.7067 16.7215 38.4225C17.018 39.1383 17.1706 39.9055 17.1706 40.6803Z" fill="#676767"/>
<path d="M42.1305 30.4298C42.1325 32.0975 41.6397 33.7284 40.7146 35.116C39.7895 36.5036 38.4737 37.5856 36.9335 38.2252C35.3933 38.8648 33.6979 39.0331 32.062 38.709C30.4261 38.3848 28.9231 37.5827 27.7432 36.4042C26.5632 35.2256 25.7593 33.7237 25.4332 32.0881C25.1071 30.4526 25.2735 28.757 25.9113 27.2161C26.549 25.6751 27.6295 24.3579 29.016 23.4312C30.4025 22.5044 32.0327 22.0098 33.7004 22.0098C34.807 22.0085 35.9031 22.2253 36.9258 22.6478C37.9485 23.0704 38.8778 23.6904 39.6608 24.4724C40.4437 25.2544 41.0649 26.1831 41.4886 27.2053C41.9124 28.2275 42.1305 29.3232 42.1305 30.4298Z" fill="#979797"/>
<path d="M22.2807 30.43C22.2876 27.4984 23.4205 24.6816 25.4455 22.5617C27.4704 20.4419 30.2325 19.181 33.1607 19.04C33.3201 18.115 33.4037 17.1785 33.4107 16.2399C33.4107 13.0275 32.4579 9.88737 30.673 7.2165C28.8881 4.54563 26.3512 2.46405 23.3831 1.23517C20.4151 0.00630212 17.1492 -0.314623 13.9987 0.312812C10.8482 0.940247 7.95457 2.48787 5.68377 4.76008C3.41296 7.03228 1.867 9.92692 1.2415 13.0778C0.61601 16.2287 0.939026 19.4944 2.16973 22.4617C3.40043 25.429 5.48348 27.9646 8.15545 29.7479C10.8274 31.5311 13.9683 32.4819 17.1807 32.4799C18.9362 32.4783 20.6795 32.1877 22.3406 31.6199C22.3004 31.2245 22.2805 30.8274 22.2807 30.43Z" fill="#026D9C"/>
</svg>
