<svg width="38" height="38" viewBox="0 0 38 38" fill="none" xmlns="http://www.w3.org/2000/svg">
<path d="M30.3507 37.7098H8.53064C6.5052 37.7072 4.56355 36.9018 3.13135 35.4696C1.69914 34.0374 0.893271 32.0956 0.890625 30.0702V8.24988C0.893271 6.22444 1.69914 4.28267 3.13135 2.85046C4.56355 1.41826 6.5052 0.612875 8.53064 0.610229H30.3507C32.3779 0.610228 34.3221 1.41504 35.7565 2.84753C37.1908 4.28003 37.9981 6.2227 38.0007 8.24988V30.08C37.9981 32.1071 37.1908 34.0508 35.7565 35.4833C34.3221 36.9158 32.3779 37.7196 30.3507 37.7196M8.53064 2.40027C6.97728 2.40291 5.48828 3.02063 4.38989 4.11902C3.2915 5.21741 2.6733 6.70629 2.67065 8.25964V30.08C2.6733 31.6333 3.2915 33.1222 4.38989 34.2206C5.48828 35.319 6.97728 35.9377 8.53064 35.9403H30.3507C31.1203 35.9403 31.8823 35.7885 32.5933 35.494C33.3042 35.1995 33.9502 34.7677 34.4944 34.2235C35.0385 33.6794 35.4702 33.0331 35.7646 32.3221C36.0591 31.6112 36.2107 30.8495 36.2107 30.08V8.25964C36.2107 6.70547 35.5933 5.21505 34.4944 4.11609C33.3954 3.01713 31.9049 2.40027 30.3507 2.40027H8.53064Z" fill="#808080"/>
<path d="M19.4408 29.5093C17.3938 29.5093 15.3927 28.9025 13.6907 27.7652C11.9886 26.6279 10.662 25.0119 9.87868 23.1207C9.09532 21.2294 8.89034 19.1479 9.28969 17.1402C9.68905 15.1325 10.6747 13.2888 12.1222 11.8414C13.5697 10.3939 15.4139 9.40771 17.4217 9.00835C19.4294 8.609 21.5104 8.81385 23.4016 9.59722C25.2928 10.3806 26.9093 11.7077 28.0465 13.4097C29.1838 15.1118 29.7908 17.1127 29.7908 19.1597C29.7881 21.9039 28.6969 24.5347 26.7565 26.4751C24.8161 28.4156 22.185 29.5067 19.4408 29.5093ZM19.4408 10.5894C17.7458 10.5894 16.0889 11.0921 14.6796 12.0337C13.2703 12.9754 12.1719 14.3145 11.5232 15.8804C10.8746 17.4464 10.7049 19.1692 11.0355 20.8316C11.3662 22.494 12.1823 24.0208 13.3809 25.2193C14.5794 26.4178 16.1065 27.2343 17.7689 27.565C19.4314 27.8957 21.1544 27.7263 22.7204 27.0777C24.2863 26.429 25.6249 25.3298 26.5665 23.9205C27.5082 22.5111 28.0108 20.8547 28.0108 19.1597C28.0081 16.8876 27.1044 14.7097 25.4978 13.1031C23.8912 11.4965 21.7129 10.5921 19.4408 10.5894Z" fill="#808080"/>
<path d="M31.1904 10C30.6465 10 30.1148 9.83835 29.6626 9.53618C29.2103 9.23401 28.8579 8.80528 28.6498 8.30278C28.4416 7.80029 28.3872 7.24736 28.4933 6.71391C28.5994 6.18047 28.8612 5.69031 29.2458 5.30571C29.6304 4.92112 30.1205 4.65889 30.6539 4.55278C31.1874 4.44667 31.7403 4.50089 32.2428 4.70903C32.7453 4.91717 33.1747 5.27047 33.4769 5.7227C33.7791 6.17494 33.9404 6.70615 33.9404 7.25005C33.9404 7.97939 33.6507 8.67866 33.135 9.19438C32.6193 9.71011 31.9198 10 31.1904 10ZM31.1904 5.09966C30.7628 5.09966 30.3448 5.2271 29.9894 5.46489C29.6339 5.70268 29.3571 6.04032 29.194 6.43559C29.0308 6.83087 28.9886 7.26632 29.0727 7.68559C29.1569 8.10486 29.3635 8.48938 29.6666 8.79106C29.9697 9.09274 30.3555 9.29772 30.7751 9.37993C31.1948 9.46214 31.6294 9.418 32.0239 9.25298C32.4184 9.08796 32.7552 8.8097 32.9913 8.45317C33.2275 8.09665 33.3524 7.67768 33.3504 7.25005C33.3478 6.67891 33.119 6.13246 32.7142 5.72954C32.3094 5.32662 31.7616 5.09965 31.1904 5.09966Z" fill="#808080"/>
</svg>
