<svg width="50" height="30" viewBox="0 0 50 30" fill="none" xmlns="http://www.w3.org/2000/svg">
<path d="M45.7954 20.6007C45.128 17.5268 43.7884 14.6387 41.8727 12.1438C39.957 9.64891 37.5128 7.60907 34.7154 6.17065H42.6654C42.895 6.6942 43.2978 7.12284 43.806 7.38452C44.3143 7.6462 44.8971 7.72496 45.4567 7.60767C46.0162 7.49038 46.5183 7.18413 46.8787 6.74036C47.2391 6.29658 47.4358 5.74233 47.4358 5.17065C47.4358 4.59898 47.2391 4.04472 46.8787 3.60095C46.5183 3.15718 46.0162 2.85093 45.4567 2.73364C44.8971 2.61635 44.3143 2.69511 43.806 2.95679C43.2978 3.21846 42.895 3.6471 42.6654 4.17065H29.4954V0.680664H20.4954V4.17065H7.30542C7.07598 3.64996 6.67446 3.22402 6.16821 2.96423C5.66197 2.70445 5.08179 2.62666 4.52499 2.7439C3.9682 2.86113 3.46865 3.1663 3.11014 3.60815C2.75163 4.05001 2.55597 4.60165 2.55597 5.17065C2.55597 5.73966 2.75163 6.29142 3.11014 6.73328C3.46865 7.17513 3.9682 7.48018 4.52499 7.59741C5.08179 7.71465 5.66197 7.63686 6.16821 7.37708C6.67446 7.11729 7.07598 6.69135 7.30542 6.17065H15.3054C12.5035 7.60565 10.0546 9.6442 8.13522 12.1394C6.21583 14.6346 4.87368 17.5244 4.20541 20.6007H0.56543V29.6007H9.56543V20.6007H6.9754C7.79306 17.3339 9.48277 14.3505 11.864 11.9692C14.2453 9.588 17.2286 7.89835 20.4954 7.08069V9.67065H29.4954V7.08069C32.7622 7.89835 35.7456 9.588 38.1268 11.9692C40.5081 14.3505 42.1978 17.3339 43.0154 20.6007H40.4354V29.6007H49.4354V20.6007H45.7954ZM8.1954 28.2606H1.89542V21.9507H8.20541L8.1954 28.2606ZM28.1454 8.32068H21.8254V2.01062H28.1454V8.32068ZM48.0854 28.2606H41.7754V21.9507H48.0854V28.2606Z" fill="black"/>
</svg>
