<svg width="24" height="24" viewBox="0 0 24 24" fill="none" xmlns="http://www.w3.org/2000/svg">
<path d="M10.9092 2.78216C11.949 2.20625 13.247 2.54089 13.8848 3.5224L13.9676 3.66023L21.7266 17.6685C21.9114 18.0021 22.0084 18.3773 22.0084 18.7587C22.0084 19.9495 21.0832 20.9243 19.9124 21.0035L19.7584 21.0087H4.2426C3.86129 21.0087 3.48623 20.9118 3.15265 20.7271C2.11281 20.1513 1.70777 18.8734 2.20133 17.812L2.27422 17.6687L10.031 3.66046C10.2355 3.2911 10.5399 2.98674 10.9092 2.78216ZM12.0012 16.0018C11.4496 16.0018 11.0025 16.4489 11.0025 17.0004C11.0025 17.552 11.4496 17.9991 12.0012 17.9991C12.5527 17.9991 12.9998 17.552 12.9998 17.0004C12.9998 16.4489 12.5527 16.0018 12.0012 16.0018ZM11.999 7.99806C11.4862 7.99825 11.0636 8.38444 11.0061 8.8818L10.9994 8.99842L11.0012 13.9993L11.0079 14.1159C11.0659 14.6132 11.4887 14.9991 12.0015 14.9989C12.5144 14.9988 12.9369 14.6126 12.9945 14.1152L13.0012 13.9986L12.9994 8.9977L12.9926 8.88108C12.9347 8.38376 12.5118 7.99788 11.999 7.99806Z" fill="#FF8800"/>
</svg>
