<svg width="24" height="24" viewBox="0 0 24 24" fill="none" xmlns="http://www.w3.org/2000/svg">
<path d="M12.0016 1.99902C17.5253 1.99902 22.0031 6.47687 22.0031 12.0006C22.0031 17.5243 17.5253 22.0021 12.0016 22.0021C6.47785 22.0021 2 17.5243 2 12.0006C2 6.47687 6.47785 1.99902 12.0016 1.99902Z" fill="#4FDEE8"/>
<path d="M11.9973 10.2495C11.4844 10.2499 11.062 10.6362 11.0046 11.1336L10.9979 11.2502L11.0015 16.7518L11.0083 16.8684C11.0664 17.3657 11.4893 17.7515 12.0022 17.7511C12.515 17.7508 12.9374 17.3645 12.9949 16.8671L13.0015 16.7505L12.9979 11.2489L12.9911 11.1323C12.933 10.635 12.5101 10.2492 11.9973 10.2495Z" fill="#2C2D35"/>
<path d="M12.0015 6.5C11.3103 6.5 10.75 7.06032 10.75 7.75152C10.75 8.44272 11.3103 9.00304 12.0015 9.00304C12.6927 9.00304 13.253 8.44272 13.253 7.75152C13.253 7.06032 12.6927 6.5 12.0015 6.5Z" fill="#2C2D35"/>
</svg>
