<svg width="22" height="40" viewBox="0 0 22 40" fill="none" xmlns="http://www.w3.org/2000/svg">
<path d="M10.6836 1C11.9968 1 13.2972 1.25389 14.5104 1.7472C15.7237 2.24051 16.8261 2.96358 17.7546 3.8751C18.6832 4.78662 19.4198 5.86876 19.9224 7.05972C20.4249 8.25069 20.6836 9.52718 20.6836 10.8163V29.1838C20.6836 31.7872 19.63 34.284 17.7546 36.1249C15.8793 37.9658 13.3358 39 10.6836 39C8.03143 39 5.48791 37.9658 3.61255 36.1249C1.73718 34.284 0.683594 31.7872 0.683594 29.1838V10.8163C0.683594 8.21283 1.73718 5.71601 3.61255 3.8751C5.48791 2.03419 8.03143 1 10.6836 1Z" stroke="black" stroke-miterlimit="10"/>
<path d="M10.6827 15.4672C10.475 15.4672 10.2757 15.3862 10.1288 15.242C9.98192 15.0978 9.89941 14.9022 9.89941 14.6983V9.83045C9.89941 9.62651 9.98192 9.43092 10.1288 9.28672C10.2757 9.14252 10.475 9.06152 10.6827 9.06152C10.8905 9.06152 11.0897 9.14252 11.2366 9.28672C11.3835 9.43092 11.466 9.62651 11.466 9.83045V14.7231C11.466 14.927 11.3835 15.1226 11.2366 15.2668C11.0897 15.411 10.8905 15.492 10.6827 15.492" fill="black"/>
</svg>
