<svg width="40" height="44" viewBox="0 0 40 44" fill="none" xmlns="http://www.w3.org/2000/svg">
<path d="M12.9421 43.6343L11.7233 39.1025L4.66191 32.9624L0 32.3762L5.07324 26.5485L9.86469 25.3144C11.0517 19.8456 13.64 14.7795 17.3755 10.6127C23.6143 3.44463 32.0849 -0.683734 38.9635 0.0932518L39.4054 0.146068L39.512 0.573066C41.2336 7.28409 38.3161 16.2423 32.0849 23.4256C28.4843 27.6885 23.8383 30.9429 18.6019 32.8709L18.0383 37.7999L12.9421 43.6343ZM5.78166 27.6985L2.5671 31.3935L5.21798 31.7282L12.8355 38.3861L13.5287 40.9533L16.7433 37.2591L17.3527 31.9269L17.7564 31.7967C22.9431 29.9737 27.5446 26.7906 31.0794 22.5798C36.9068 15.8916 39.7177 7.61873 38.3389 1.35713C31.9478 0.84676 24.1475 4.77743 18.3201 11.4808C14.6404 15.5671 12.1231 20.5649 11.0301 25.9541L10.9616 26.3655L5.78166 27.6985Z" fill="#026D9C"/>
<path d="M26.8213 14.6039C26.3445 14.1882 26.0017 13.6404 25.8361 13.0299C25.6706 12.4193 25.6897 11.7735 25.8911 11.1738C26.0925 10.5742 26.4672 10.0475 26.9677 9.66074C27.4683 9.27396 28.0722 9.04454 28.7033 9.0009C29.3344 8.95727 29.9642 9.10178 30.5132 9.416C31.0622 9.73022 31.5058 10.2 31.7878 10.7662C32.0698 11.3324 32.1776 11.9694 32.0977 12.5969C32.0177 13.2244 31.7535 13.8141 31.3385 14.2915C30.7801 14.9307 29.9911 15.3228 29.1444 15.3813C28.2977 15.4399 27.4623 15.1602 26.8213 14.6039ZM30.1806 10.7491C29.8961 10.4991 29.5438 10.3395 29.1684 10.2901C28.7929 10.2407 28.4112 10.3038 28.0717 10.4716C27.7322 10.6394 27.4502 10.9043 27.2614 11.2326C27.0726 11.5609 26.9855 11.9379 27.0112 12.3157C27.0369 12.6935 27.1742 13.0553 27.4057 13.3549C27.6372 13.6546 27.9525 13.8789 28.3115 13.9992C28.6706 14.1194 29.0573 14.1302 29.4226 14.0304C29.7879 13.9306 30.1154 13.7244 30.3634 13.4383C30.6942 13.0567 30.8606 12.5599 30.8264 12.0561C30.7921 11.5523 30.56 11.0823 30.1806 10.7491Z" fill="#026D9C"/>
<path d="M1.66016 43.4125L2.08673 39.7488C2.18212 38.9012 2.53583 38.1034 3.09988 37.4635L3.15316 37.4025L5.35463 35.6045C5.40213 35.5618 5.45796 35.5295 5.51857 35.5093C5.57918 35.4891 5.64329 35.482 5.70691 35.4877C5.77053 35.4935 5.83229 35.5121 5.88833 35.5428C5.94437 35.5735 5.99347 35.615 6.0326 35.6655C6.07405 35.7146 6.10521 35.7715 6.12424 35.8329C6.14327 35.8943 6.14979 35.9594 6.14339 36.0234C6.137 36.0873 6.11781 36.1492 6.087 36.2056C6.05619 36.262 6.01437 36.3115 5.96402 36.3514L3.80067 38.1264C3.38007 38.6198 3.11501 39.2269 3.03892 39.8708L2.77228 42.2014L4.90522 41.7521C5.58974 41.6087 6.20961 41.2483 6.67249 40.724L8.19599 38.2789C8.22511 38.2164 8.26713 38.161 8.31929 38.1159C8.37146 38.0709 8.43254 38.0374 8.49857 38.0177C8.56461 37.9981 8.6341 37.9923 8.7024 38.0014C8.7707 38.0105 8.83628 38.0342 8.89484 38.0706C8.95339 38.1069 9.00357 38.1548 9.04208 38.2119C9.0806 38.269 9.10659 38.3337 9.11829 38.4016C9.12999 38.4695 9.12713 38.5394 9.10996 38.6062C9.09279 38.6729 9.06167 38.7353 9.01865 38.7892L7.44945 41.3333C6.84102 42.0302 6.02322 42.5111 5.11849 42.7043L1.66016 43.4125Z" fill="#026D9C"/>
<path d="M11.3734 18.0555L8.44824 18.3144L12.9959 10.5139L15.5173 10.293L15.5783 11.0547L13.453 11.2377L9.84988 17.4232L11.3124 17.2938L11.3734 18.0555Z" fill="#026D9C"/>
<path d="M27.5826 32.9696L26.958 30.0982L27.7046 29.9383L28.0169 31.3777L32.8616 26.1064L32.4122 24.0191L33.1587 23.8517L33.6919 26.3274L27.5826 32.9696Z" fill="#026D9C"/>
</svg>
