<svg width="38" height="40" viewBox="0 0 38 40" fill="none" xmlns="http://www.w3.org/2000/svg">
<path d="M21.7557 40.0002H6.56271C6.39896 40.0002 6.2419 39.9355 6.12611 39.8197C6.01032 39.7039 5.94531 39.5467 5.94531 39.3829C5.94531 39.2192 6.01032 39.0623 6.12611 38.9465C6.2419 38.8307 6.39896 38.7656 6.56271 38.7656H21.7557C21.9195 38.7656 22.0764 38.8307 22.1922 38.9465C22.308 39.0623 22.3731 39.2192 22.3731 39.3829C22.3731 39.5467 22.308 39.7039 22.1922 39.8197C22.0764 39.9355 21.9195 40.0002 21.7557 40.0002Z" fill="#026D9C"/>
<path d="M32.1646 13.128H27.2326V12.0032C27.2326 11.4808 27.0251 10.9797 26.6557 10.6103C26.2862 10.2409 25.7851 10.0332 25.2627 10.0332H2.69745C2.175 10.0332 1.67398 10.2409 1.30456 10.6103C0.935137 10.9797 0.727539 11.4808 0.727539 12.0032V31.2463C0.729484 32.6493 1.28772 33.994 2.27978 34.986C3.27183 35.9781 4.6168 36.5363 6.01977 36.5382H21.9404C23.3434 36.5363 24.6884 35.9781 25.6804 34.986C26.6725 33.994 27.2306 32.6493 27.2326 31.2463V22.9697H32.1572C32.8195 22.9953 33.4801 22.8871 34.0995 22.6514C34.7189 22.4156 35.2842 22.0571 35.7618 21.5976C36.2394 21.1382 36.6194 20.587 36.8789 19.9772C37.1384 19.3674 37.2722 18.7116 37.2722 18.0489C37.2722 17.3861 37.1384 16.7303 36.8789 16.1205C36.6194 15.5107 36.2394 14.9595 35.7618 14.5001C35.2842 14.0406 34.7189 13.6821 34.0995 13.4463C33.4801 13.2106 32.8195 13.1024 32.1572 13.128M25.4979 31.2463C25.4979 32.1898 25.1231 33.0946 24.456 33.7618C23.7888 34.429 22.884 34.8037 21.9404 34.8037H6.01977C5.07626 34.8037 4.17141 34.429 3.50425 33.7618C2.83709 33.0946 2.46228 32.1898 2.46228 31.2463V12.0032C2.46228 11.9408 2.48699 11.8811 2.5311 11.837C2.57521 11.7929 2.63506 11.7681 2.69745 11.7681H25.2627C25.3251 11.7681 25.3849 11.7929 25.429 11.837C25.4731 11.8811 25.4979 11.9408 25.4979 12.0032V31.2463ZM32.1572 21.2352H27.2326V14.8625H32.1572C32.5885 14.8418 33.0196 14.9088 33.4242 15.0596C33.8288 15.2104 34.1987 15.4418 34.5112 15.7397C34.8238 16.0376 35.0726 16.3958 35.2427 16.7927C35.4127 17.1896 35.5004 17.617 35.5004 18.0489C35.5004 18.4807 35.4127 18.9081 35.2427 19.305C35.0726 19.7019 34.8238 20.0601 34.5112 20.358C34.1987 20.6559 33.8288 20.8873 33.4242 21.0381C33.0196 21.1889 32.5885 21.2559 32.1572 21.2352Z" fill="#026D9C"/>
<path d="M9.93782 7.29893C9.84035 7.29893 9.7469 7.26018 9.67798 7.19126C9.60906 7.12233 9.57031 7.02888 9.57031 6.93141V0.367512C9.57031 0.270042 9.60906 0.176592 9.67798 0.10767C9.7469 0.0387477 9.84035 0 9.93782 0C10.0353 0 10.1288 0.0387477 10.1978 0.10767C10.2667 0.176592 10.3053 0.270042 10.3053 0.367512V6.93141C10.3053 7.02888 10.2667 7.12233 10.1978 7.19126C10.1288 7.26018 10.0353 7.29893 9.93782 7.29893Z" fill="#026D9C"/>
<path d="M14.2445 7.29893C14.147 7.29893 14.0535 7.26018 13.9846 7.19126C13.9157 7.12233 13.877 7.02888 13.877 6.93141V0.367512C13.877 0.270042 13.9157 0.176592 13.9846 0.10767C14.0535 0.0387477 14.147 0 14.2445 0C14.3419 0 14.4355 0.0387477 14.5044 0.10767C14.5733 0.176592 14.612 0.270042 14.612 0.367512V6.93141C14.612 7.02888 14.5733 7.12233 14.5044 7.19126C14.4355 7.26018 14.3419 7.29893 14.2445 7.29893Z" fill="#026D9C"/>
<path d="M18.5443 7.29893C18.4468 7.29893 18.3533 7.26018 18.2843 7.19126C18.2154 7.12233 18.1768 7.02888 18.1768 6.93141V0.367512C18.1768 0.270042 18.2154 0.176592 18.2843 0.10767C18.3533 0.0387477 18.4468 0 18.5443 0C18.6417 0 18.7352 0.0387477 18.8041 0.10767C18.873 0.176592 18.9118 0.270042 18.9118 0.367512V6.93141C18.9118 7.02888 18.873 7.12233 18.8041 7.19126C18.7352 7.26018 18.6417 7.29893 18.5443 7.29893Z" fill="#026D9C"/>
</svg>
