<svg width="33" height="33" viewBox="0 0 33 33" fill="none" xmlns="http://www.w3.org/2000/svg">
<path d="M16.5648 26.2408C11.249 26.2408 8.8203 23.5328 8.8203 21.5467C8.81958 21.0729 9.01404 20.6197 9.35793 20.2937C9.70182 19.9678 10.1648 19.7978 10.6379 19.8239C12.9138 19.8239 12.3185 23.2378 16.5648 23.2378C18.7353 23.2378 20.0103 21.9313 20.0103 20.7037C20.0103 19.9662 19.5888 19.1232 18.1558 18.7861L13.4143 17.5901C9.60528 16.6208 8.94147 14.5029 8.94147 12.5378C8.94147 8.46009 12.6715 6.98496 16.2223 6.98496C19.494 6.98496 23.382 8.792 23.382 11.2365C23.382 12.2902 22.5022 12.8539 21.4801 12.8539C19.5361 12.8539 19.8628 10.1249 15.9536 10.1249C14.0096 10.1249 12.9876 11.0363 12.9876 12.3113C12.9876 13.5862 14.4996 14.0182 15.8272 14.308L19.3254 15.0982C23.1607 15.9622 24.1828 18.2118 24.1828 20.3666C24.1828 23.6804 21.6171 26.2408 16.5595 26.2408H16.5648ZM31.2424 19.2286C31.3943 18.3588 31.4701 17.4774 31.4689 16.5944C31.4875 12.1591 29.5387 7.94373 26.1477 5.08469C22.7567 2.22566 18.2727 1.01721 13.9043 1.78509C12.5616 1.01203 11.0387 0.606789 9.48938 0.610251C6.30919 0.629679 3.37782 2.33409 1.78773 5.08829C0.197646 7.84249 0.18736 11.2333 1.76071 13.9971C0.882791 18.821 2.42064 23.7692 5.8782 27.2457C9.33576 30.7222 14.2755 32.287 19.1041 31.4354C20.4452 32.2078 21.9661 32.613 23.5137 32.6102C26.6923 32.5897 29.6219 30.886 31.2116 28.1335C32.8014 25.381 32.8131 21.9921 31.2424 19.2286Z" fill="#231F20" fill-opacity="0.6"/>
</svg>
