<svg width="40" height="46" viewBox="0 0 40 46" fill="none" xmlns="http://www.w3.org/2000/svg">
<path d="M39.7253 0.609375L38.9854 0.109375C39.3354 0.319375 39.5753 0.489468 39.7053 0.579468" fill="black"/>
<path d="M22.0855 45.6C21.2955 45.6 20.5155 45.5999 19.7555 45.5399H19.1655C15.4885 45.6838 11.8061 45.4863 8.16553 44.9499C5.97954 44.6313 3.98053 43.5383 2.53247 41.87C1.08442 40.2017 0.283562 38.0689 0.275517 35.8598C0.265536 33.9639 0.846628 32.1119 1.93811 30.5616C3.0296 29.0113 4.57718 27.8398 6.36548 27.2099C10.2686 25.9321 14.288 25.0411 18.3655 24.5499C19.0994 24.4599 19.8415 24.4599 20.5754 24.5499C24.6529 25.0417 28.6721 25.9327 32.5754 27.2099C34.3637 27.8398 35.9113 29.0113 37.0028 30.5616C38.0943 32.1119 38.6755 33.9639 38.6655 35.8598C38.6578 38.0674 37.8583 40.1991 36.4122 41.8672C34.9662 43.5352 32.9697 44.6291 30.7855 44.9499C27.9011 45.3711 24.9904 45.5883 22.0754 45.6M19.4454 44.3299H19.7955C23.4124 44.4747 27.0348 44.2804 30.6155 43.7499C32.5151 43.4739 34.2522 42.5241 35.5098 41.0738C36.7673 39.6235 37.4614 37.7695 37.4655 35.85C37.4788 34.2038 36.977 32.5946 36.0302 31.2479C35.0833 29.9012 33.739 28.8845 32.1854 28.3399C28.3539 27.0857 24.4083 26.2114 20.4055 25.7298C19.768 25.6498 19.123 25.6498 18.4855 25.7298C14.4827 26.2114 10.537 27.0857 6.70545 28.3399C5.15272 28.8857 3.80928 29.9028 2.86268 31.2493C1.91607 32.5957 1.41366 34.2041 1.42554 35.85C1.4296 37.7695 2.12369 39.6235 3.38123 41.0738C4.63877 42.5241 6.37588 43.4739 8.27552 43.7499C11.8562 44.2804 15.4786 44.4747 19.0955 44.3299H19.4454Z" fill="black"/>
<path d="M28.1553 14.8193C28.1553 16.4016 27.6861 17.9483 26.8071 19.2639C25.928 20.5795 24.6785 21.6048 23.2167 22.2103C21.7549 22.8158 20.1464 22.9743 18.5945 22.6656C17.0427 22.357 15.6173 21.595 14.4985 20.4762C13.3796 19.3574 12.6177 17.9319 12.309 16.38C12.0003 14.8282 12.1587 13.2196 12.7642 11.7578C13.3697 10.296 14.3951 9.04665 15.7107 8.1676C17.0263 7.28855 18.5731 6.81934 20.1553 6.81934C22.2771 6.81934 24.3119 7.66218 25.8122 9.16248C27.3125 10.6628 28.1553 12.6976 28.1553 14.8193Z" fill="black"/>
</svg>
