<svg width="40" height="41" viewBox="0 0 40 41" fill="none" xmlns="http://www.w3.org/2000/svg">
<path d="M20.7557 12.5205V1.52051C20.7557 1.3216 20.6767 1.13076 20.5361 0.990112C20.3954 0.84946 20.2046 0.770508 20.0057 0.770508C19.8068 0.770508 19.6161 0.84946 19.4754 0.990112C19.3348 1.13076 19.2557 1.3216 19.2557 1.52051V12.5205C18.4306 12.6954 17.6906 13.1485 17.1596 13.8038C16.6286 14.4592 16.3389 15.277 16.3389 16.1205C16.3389 16.9639 16.6286 17.7818 17.1596 18.4371C17.6906 19.0925 18.4306 19.5455 19.2557 19.7205V39.8505C19.2557 40.0494 19.3348 40.2401 19.4754 40.3807C19.6161 40.5214 19.8068 40.6005 20.0057 40.6005C20.2046 40.6005 20.3954 40.5214 20.5361 40.3807C20.6767 40.2401 20.7557 40.0494 20.7557 39.8505V19.7605C21.5809 19.5856 22.3209 19.1325 22.8519 18.4772C23.3829 17.8218 23.6726 17.004 23.6726 16.1605C23.6726 15.3171 23.3829 14.4991 22.8519 13.8438C22.3209 13.1884 21.5809 12.7353 20.7557 12.5604M20.7557 18.1904C20.2731 18.377 19.7383 18.377 19.2557 18.1904C18.839 18.0389 18.479 17.7628 18.2246 17.3997C17.9702 17.0365 17.8337 16.6039 17.8337 16.1605C17.8337 15.7171 17.9702 15.2844 18.2246 14.9213C18.479 14.5581 18.839 14.282 19.2557 14.1305C19.7383 13.9439 20.2731 13.9439 20.7557 14.1305C21.1725 14.282 21.5325 14.5581 21.7869 14.9213C22.0413 15.2844 22.1777 15.7171 22.1777 16.1605C22.1777 16.6039 22.0413 17.0365 21.7869 17.3997C21.5325 17.7628 21.1725 18.0389 20.7557 18.1904Z" fill="black"/>
<path d="M36.675 26.3807V1.51074C36.675 1.31183 36.596 1.121 36.4553 0.980347C36.3147 0.839694 36.1239 0.760742 35.925 0.760742C35.7261 0.760742 35.5353 0.839694 35.3947 0.980347C35.254 1.121 35.175 1.31183 35.175 1.51074V26.3807C34.3525 26.5604 33.6162 27.0159 33.0883 27.6716C32.5603 28.3274 32.2725 29.1439 32.2725 29.9857C32.2725 30.8276 32.5603 31.6441 33.0883 32.2998C33.6162 32.9555 34.3525 33.411 35.175 33.5907V39.8507C35.175 40.0496 35.254 40.2403 35.3947 40.381C35.5353 40.5216 35.7261 40.6007 35.925 40.6007C36.1239 40.6007 36.3147 40.5216 36.4553 40.381C36.596 40.2403 36.675 40.0496 36.675 39.8507V33.6307C37.4975 33.4511 38.2338 32.9956 38.7617 32.3398C39.2897 31.6841 39.5776 30.8676 39.5776 30.0258C39.5776 29.1839 39.2897 28.3673 38.7617 27.7115C38.2338 27.0558 37.4975 26.6003 36.675 26.4207M36.675 32.0607C36.1924 32.2472 35.6576 32.2472 35.175 32.0607C34.7593 31.9068 34.4007 31.6293 34.1475 31.2655C33.8942 30.9017 33.7584 30.469 33.7584 30.0258C33.7584 29.5825 33.8942 29.1498 34.1475 28.786C34.4007 28.4222 34.7593 28.1446 35.175 27.9907C35.6576 27.8042 36.1924 27.8042 36.675 27.9907C37.0907 28.1446 37.4493 28.4222 37.7026 28.786C37.9558 29.1498 38.0916 29.5825 38.0916 30.0258C38.0916 30.469 37.9558 30.9017 37.7026 31.2655C37.4493 31.6293 37.0907 31.9068 36.675 32.0607Z" fill="black"/>
<path d="M4.82544 26.3807V1.51074C4.82544 1.31183 4.74643 1.121 4.60577 0.980347C4.46512 0.839694 4.27435 0.760742 4.07544 0.760742C3.87653 0.760742 3.68576 0.839694 3.5451 0.980347C3.40445 1.121 3.32544 1.31183 3.32544 1.51074V26.3807C2.50298 26.5604 1.76667 27.0159 1.23871 27.6716C0.71075 28.3274 0.422852 29.1439 0.422852 29.9857C0.422852 30.8276 0.71075 31.6441 1.23871 32.2998C1.76667 32.9555 2.50298 33.411 3.32544 33.5907V39.8507C3.32544 40.0496 3.40445 40.2403 3.5451 40.381C3.68576 40.5216 3.87653 40.6007 4.07544 40.6007C4.27435 40.6007 4.46512 40.5216 4.60577 40.381C4.74643 40.2403 4.82544 40.0496 4.82544 39.8507V33.6307C5.6479 33.4511 6.38421 32.9956 6.91217 32.3398C7.44013 31.6841 7.72797 30.8676 7.72797 30.0258C7.72797 29.1839 7.44013 28.3673 6.91217 27.7115C6.38421 27.0558 5.6479 26.6003 4.82544 26.4207M4.82544 32.0607C4.34284 32.2472 3.80804 32.2472 3.32544 32.0607C2.90974 31.9068 2.5511 31.6293 2.29785 31.2655C2.0446 30.9017 1.90887 30.469 1.90887 30.0258C1.90887 29.5825 2.0446 29.1498 2.29785 28.786C2.5511 28.4222 2.90974 28.1446 3.32544 27.9907C3.80804 27.8042 4.34284 27.8042 4.82544 27.9907C5.24114 28.1446 5.59972 28.4222 5.85297 28.786C6.10622 29.1498 6.242 29.5825 6.242 30.0258C6.242 30.469 6.10622 30.9017 5.85297 31.2655C5.59972 31.6293 5.24114 31.9068 4.82544 32.0607Z" fill="black"/>
</svg>
