<svg width="22" height="20" viewBox="0 0 22 20" fill="none" xmlns="http://www.w3.org/2000/svg">
<path d="M9.90921 0.782164C10.949 0.206251 12.247 0.540893 12.8848 1.5224L12.9676 1.66023L20.7266 15.6685C20.9114 16.0021 21.0084 16.3773 21.0084 16.7587C21.0084 17.9495 20.0832 18.9243 18.9124 19.0035L18.7584 19.0087H3.2426C2.86129 19.0087 2.48623 18.9118 2.15265 18.7271C1.11281 18.1513 0.707771 16.8734 1.20133 15.812L1.27422 15.6687L9.03102 1.66046C9.23555 1.2911 9.53988 0.986735 9.90921 0.782164ZM19.4144 16.3953L11.6555 2.38702C11.4548 2.02467 10.9983 1.89363 10.636 2.09433C10.5437 2.14547 10.4635 2.21533 10.4005 2.299L10.3433 2.3871L2.58647 16.3954C2.38582 16.7577 2.51692 17.2141 2.87928 17.4148C2.96268 17.461 3.05385 17.4907 3.14785 17.5027L3.2426 17.5087H18.7584C19.1726 17.5087 19.5084 17.1729 19.5084 16.7587C19.5084 16.6633 19.4902 16.5691 19.4551 16.4811L19.4144 16.3953L11.6555 2.38702L19.4144 16.3953ZM11.0003 14.0018C11.5518 14.0018 11.9989 14.4489 11.9989 15.0004C11.9989 15.552 11.5518 15.9991 11.0003 15.9991C10.4487 15.9991 10.0016 15.552 10.0016 15.0004C10.0016 14.4489 10.4487 14.0018 11.0003 14.0018ZM10.9961 6.49955C11.3758 6.49925 11.6898 6.78115 11.7397 7.14718L11.7467 7.24895L11.7503 11.7505C11.7506 12.1648 11.4151 12.5008 11.0009 12.5011C10.6212 12.5014 10.3072 12.2195 10.2572 11.8535L10.2503 11.7517L10.2467 7.25015C10.2463 6.83594 10.5819 6.49988 10.9961 6.49955Z" fill="#EA2E4E"/>
</svg>
