<svg width="42" height="35" viewBox="0 0 42 35" fill="none" xmlns="http://www.w3.org/2000/svg">
<path d="M36.7399 28.5305H4.28998C3.15301 28.5279 2.06336 28.0751 1.2594 27.2711C0.45544 26.4672 0.00264105 25.3774 0 24.2405V4.90051C-3.07922e-06 3.76181 0.451614 2.66964 1.25586 1.86353C2.0601 1.05741 3.15128 0.603234 4.28998 0.600586H36.7399C37.8786 0.603234 38.9699 1.05741 39.7741 1.86353C40.5784 2.66964 41.03 3.76181 41.03 4.90051V24.2405C41.03 25.3783 40.578 26.4695 39.7735 27.274C38.969 28.0786 37.8777 28.5305 36.7399 28.5305ZM4.28998 1.79053C3.46954 1.79317 2.68363 2.12095 2.10443 2.70203C1.52523 3.2831 1.20001 4.07006 1.20001 4.8905V24.2305C1.20001 25.05 1.52555 25.836 2.10504 26.4155C2.68453 26.995 3.47046 27.3206 4.28998 27.3206H36.7399C37.5594 27.3206 38.3455 26.995 38.925 26.4155C39.5045 25.836 39.83 25.05 39.83 24.2305V4.8905C39.83 4.07006 39.5048 3.2831 38.9256 2.70203C38.3464 2.12095 37.5604 1.79317 36.7399 1.79053H4.28998Z" fill="black"/>
<path d="M21.1101 27.9307H19.9102V34.0006H21.1101V27.9307Z" fill="black"/>
<path d="M33.7804 34.6005H7.50043C7.3413 34.6005 7.18869 34.5372 7.07617 34.4247C6.96365 34.3122 6.90039 34.1595 6.90039 34.0004C6.90039 33.8412 6.96365 33.6887 7.07617 33.5762C7.18869 33.4637 7.3413 33.4004 7.50043 33.4004H33.7804C33.9395 33.4004 34.0922 33.4637 34.2047 33.5762C34.3172 33.6887 34.3804 33.8412 34.3804 34.0004C34.3804 34.1595 34.3172 34.3122 34.2047 34.4247C34.0922 34.5372 33.9395 34.6005 33.7804 34.6005Z" fill="black"/>
</svg>
