<svg width="65" height="29" viewBox="0 0 65 29" fill="none" xmlns="http://www.w3.org/2000/svg">
<path d="M25.2297 20.8695H7.92969V17.39L17.5897 5.73962H8.14966V1.22009H24.8297V4.69958L15.1897 16.35H25.1897L25.2297 20.8695ZM8.92969 19.8695H24.2297V17.35H13.0397L23.7997 4.34998V2.22986H9.11969V4.74939H19.6897L8.89966 17.7494L8.92969 19.8695Z" fill="#808080"/>
<path d="M31.01 21.0797C29.9554 21.1036 28.9081 20.8993 27.94 20.4801C27.1054 20.1069 26.3919 19.5072 25.88 18.7496C25.3983 18.002 25.1478 17.1292 25.16 16.2399C25.1352 15.5562 25.277 14.8771 25.5731 14.2604C25.8693 13.6437 26.3109 13.1079 26.86 12.6998C28.3482 11.7546 30.1021 11.3161 31.86 11.4498H34.63C34.571 10.9865 34.3517 10.5584 34.01 10.2399C33.3912 9.78228 32.627 9.56511 31.86 9.62952C31.1503 9.62914 30.445 9.74058 29.77 9.9596C29.1453 10.1517 28.5595 10.4537 28.04 10.8502L27.57 11.2301L25.57 7.40003L25.92 7.15003C26.8333 6.52791 27.8487 6.07039 28.92 5.79944C30.0595 5.48245 31.2373 5.32456 32.42 5.32972C34.3852 5.20966 36.3257 5.81846 37.87 7.03968C38.5483 7.70588 39.0739 8.51186 39.4106 9.40101C39.7473 10.2902 39.887 11.2417 39.82 12.1901V20.8698H34.93V19.9303C33.8162 20.7584 32.4453 21.1651 31.06 21.0797M31.86 12.4498C30.3439 12.3147 28.8241 12.6649 27.52 13.4498C27.0931 13.7635 26.7502 14.1779 26.5217 14.6559C26.2932 15.1338 26.1861 15.6608 26.21 16.1901C26.1861 16.8985 26.3817 17.597 26.77 18.1901C27.1713 18.7969 27.7414 19.2732 28.41 19.5602C29.2464 19.9187 30.1503 20.0924 31.06 20.07C33.06 20.07 34.31 19.5 35 18.32L35.93 16.7301V19.86H38.82V12.1803C38.8834 11.3734 38.7714 10.5619 38.4917 9.80237C38.2121 9.04288 37.7714 8.35306 37.2 7.77991C35.8406 6.72163 34.1387 6.20184 32.42 6.31995C31.3256 6.31683 30.2357 6.46116 29.18 6.74964C28.3747 6.97704 27.6042 7.31349 26.89 7.74964L27.89 9.74964C28.3729 9.45196 28.89 9.21361 29.43 9.03968C30.2055 8.78953 31.0151 8.66145 31.83 8.6598C32.8405 8.59132 33.8409 8.89782 34.64 9.52015C34.9774 9.83138 35.2419 10.2131 35.4148 10.6383C35.5876 11.0635 35.6645 11.5218 35.64 11.9801V12.4801L31.86 12.4498ZM32.1 18.2799C31.3909 18.3091 30.6908 18.1135 30.1 17.7203C29.8382 17.5293 29.6268 17.2769 29.484 16.986C29.3411 16.6951 29.2711 16.3734 29.28 16.0494C29.28 15.0494 29.81 13.8795 32.28 13.8795H35.63V16.0104C35.3878 16.7263 34.8986 17.3324 34.25 17.7203C33.599 18.1023 32.8547 18.2957 32.1 18.2799ZM32.31 14.8795C30.31 14.8795 30.31 15.7294 30.31 16.0494C30.3008 16.2181 30.3345 16.3866 30.408 16.5387C30.4814 16.6908 30.5922 16.8218 30.73 16.9196C31.1543 17.1846 31.6507 17.3108 32.15 17.2799C32.7247 17.2922 33.2919 17.147 33.79 16.86C34.2175 16.6095 34.5432 16.2162 34.71 15.7496V14.8795H32.31Z" fill="#808080"/>
<path d="M47.0104 20.8695H41.8604V0.0999756H47.0104V20.8695ZM42.8604 19.8695H46.0104V1.09998H42.8604V19.8695Z" fill="#808080"/>
<path d="M56.5204 21.0795C55.0304 21.0997 53.5579 20.7564 52.2304 20.0795C50.9892 19.4391 49.9505 18.4667 49.2304 17.2699C48.5159 16.0343 48.1396 14.6318 48.1396 13.2045C48.1396 11.7772 48.5159 10.3756 49.2304 9.14001C49.9505 7.94325 50.9892 6.96979 52.2304 6.32947C53.5648 5.67147 55.0326 5.32947 56.5204 5.32947C58.0082 5.32947 59.4761 5.67147 60.8104 6.32947C62.0484 6.97448 63.0858 7.94687 63.8104 9.14001C64.5181 10.3779 64.8904 11.7786 64.8904 13.2045C64.8904 14.6304 64.5181 16.032 63.8104 17.2699C63.0891 18.4657 62.0508 19.4379 60.8104 20.0795C59.4833 20.7576 58.0105 21.1009 56.5204 21.0795ZM56.5204 6.32947C55.1933 6.30829 53.8814 6.61457 52.7004 7.22009C51.6205 7.77419 50.7141 8.6146 50.0804 9.64978C49.4641 10.7332 49.1401 11.958 49.1401 13.2045C49.1401 14.4509 49.4641 15.6767 50.0804 16.7601C50.7141 17.7953 51.6205 18.6357 52.7004 19.1898C53.8886 19.7755 55.1956 20.0804 56.5204 20.0804C57.8451 20.0804 59.1522 19.7755 60.3404 19.1898C61.4147 18.6353 62.3146 17.7946 62.9404 16.7601C63.5567 15.6767 63.8808 14.4509 63.8808 13.2045C63.8808 11.958 63.5567 10.7332 62.9404 9.64978C62.3146 8.61535 61.4147 7.77462 60.3404 7.22009C59.1598 6.6134 57.8476 6.30706 56.5204 6.32947ZM56.5204 17.6693C55.9622 17.6851 55.4069 17.5843 54.8902 17.3724C54.3735 17.1606 53.9069 16.8429 53.5204 16.4398C52.7537 15.5363 52.3329 14.3895 52.3329 13.2045C52.3329 12.0195 52.7537 10.8736 53.5204 9.97009C54.317 9.17624 55.3958 8.72986 56.5204 8.72986C57.645 8.72986 58.7238 9.17624 59.5204 9.97009C60.2705 10.8813 60.6807 12.0242 60.6807 13.2045C60.6807 14.3847 60.2705 15.5286 59.5204 16.4398C59.1339 16.8429 58.6673 17.1606 58.1506 17.3724C57.6339 17.5843 57.0786 17.6851 56.5204 17.6693ZM56.5204 9.73962C56.0986 9.72466 55.6784 9.79887 55.2872 9.9574C54.8961 10.1159 54.5428 10.3551 54.2504 10.6595C53.6595 11.376 53.3364 12.2757 53.3364 13.2045C53.3364 14.1332 53.6595 15.0329 54.2504 15.7494C54.8587 16.3395 55.6729 16.6703 56.5204 16.6703C57.3679 16.6703 58.1821 16.3395 58.7904 15.7494C59.3605 15.0236 59.6705 14.1274 59.6705 13.2045C59.6705 12.2815 59.3605 11.3854 58.7904 10.6595C58.498 10.3551 58.1448 10.1159 57.7536 9.9574C57.3624 9.79887 56.9422 9.72466 56.5204 9.73962Z" fill="#808080"/>
<path d="M15.1396 24.4496C14.4885 25.2694 13.67 25.941 12.7387 26.4193C11.8074 26.8976 10.7849 27.1714 9.73926 27.223C8.69364 27.2746 7.64907 27.1024 6.67523 26.7181C5.70139 26.3339 4.82068 25.7471 4.09198 24.9955C3.36328 24.2438 2.80336 23.345 2.44952 22.3597C2.09568 21.3745 1.95609 20.3251 2.0401 19.2816C2.12411 18.2381 2.42974 17.224 2.93665 16.308C3.44355 15.392 4.14005 14.5955 4.97961 13.9701L4.37964 13.1595C3.33889 13.942 2.49378 14.9552 1.91077 16.1195C1.32776 17.2838 1.02269 18.5674 1.01959 19.8695C1.02076 21.2708 1.38239 22.6483 2.06964 23.8695L0.849609 28.2299L7.2796 27.9398C7.96278 28.1129 8.66487 28.2 9.36963 28.1996C10.6268 28.2021 11.8682 27.9199 13.0008 27.3744C14.1334 26.8289 15.1279 26.0337 15.9096 25.0492L15.1396 24.4496ZM2.13959 27.1996L2.74963 25.0101C3.39493 25.8399 4.19248 26.5386 5.09961 27.0697L2.13959 27.1996Z" fill="#808080"/>
</svg>
